<mxfile host="app.diagrams.net" agent="Mozilla/5.0 (Windows NT 10.0; Win64; x64) AppleWebKit/537.36 (KHTML, like Gecko) Chrome/138.0.0.0 Safari/537.36" version="27.2.0">
  <diagram name="Page-1" id="mX9WFPaPRQZbATmu6Zbr">
    <mxGraphModel dx="1426" dy="915" grid="1" gridSize="10" guides="1" tooltips="1" connect="1" arrows="1" fold="1" page="1" pageScale="1" pageWidth="1100" pageHeight="600" math="0" shadow="0">
      <root>
        <mxCell id="0" />
        <mxCell id="1" parent="0" />
        <mxCell id="m3ywG3zxG51LFpHeeQUq-2" value="OCI Docker Host (dev, test, prod)&lt;div&gt;&lt;br&gt;&lt;/div&gt;&lt;div&gt;&lt;br&gt;&lt;/div&gt;" style="rounded=0;whiteSpace=wrap;html=1;verticalAlign=top;" parent="1" vertex="1">
          <mxGeometry x="370" y="90" width="360" height="460" as="geometry" />
        </mxCell>
        <mxCell id="m3ywG3zxG51LFpHeeQUq-3" value="Client Computer (e.g. Windows laptop)" style="rounded=0;whiteSpace=wrap;html=1;verticalAlign=top;" parent="1" vertex="1">
          <mxGeometry x="20" y="230" width="213" height="160" as="geometry" />
        </mxCell>
        <mxCell id="m3ywG3zxG51LFpHeeQUq-4" value="Data System Repository" style="rounded=0;whiteSpace=wrap;html=1;verticalAlign=top;" parent="1" vertex="1">
          <mxGeometry x="37.75" y="260" width="177.5" height="120" as="geometry" />
        </mxCell>
        <mxCell id="m3ywG3zxG51LFpHeeQUq-1" value="${SCRIPT_TYPE}.sh" style="rounded=0;whiteSpace=wrap;html=1;" parent="1" vertex="1">
          <mxGeometry x="45.75" y="290" width="161.5" height="80" as="geometry" />
        </mxCell>
        <mxCell id="xqHPgo2YLqQgxxea8p6s-1" value="&lt;div&gt;&lt;span style=&quot;background-color: transparent; color: light-dark(rgb(0, 0, 0), rgb(255, 255, 255));&quot;&gt;prepare_docker_host.sh&lt;/span&gt;&lt;/div&gt;" style="rounded=0;whiteSpace=wrap;html=1;verticalAlign=top;" parent="1" vertex="1">
          <mxGeometry x="484" y="150" width="131.5" height="30" as="geometry" />
        </mxCell>
        <mxCell id="xqHPgo2YLqQgxxea8p6s-2" value="" style="endArrow=classic;html=1;rounded=0;entryX=0;entryY=0.5;entryDx=0;entryDy=0;exitX=1;exitY=0.25;exitDx=0;exitDy=0;" parent="1" source="m3ywG3zxG51LFpHeeQUq-1" target="xqHPgo2YLqQgxxea8p6s-1" edge="1">
          <mxGeometry width="50" height="50" relative="1" as="geometry">
            <mxPoint x="530" y="620" as="sourcePoint" />
            <mxPoint x="580" y="570" as="targetPoint" />
          </mxGeometry>
        </mxCell>
        <mxCell id="xqHPgo2YLqQgxxea8p6s-3" value="2) Prepare Docker Host&amp;nbsp;&lt;br&gt;(copy, execute script)" style="edgeLabel;html=1;align=center;verticalAlign=middle;resizable=0;points=[];" parent="xqHPgo2YLqQgxxea8p6s-2" vertex="1" connectable="0">
          <mxGeometry x="-0.0468" y="1" relative="1" as="geometry">
            <mxPoint y="-13" as="offset" />
          </mxGeometry>
        </mxCell>
        <mxCell id="xqHPgo2YLqQgxxea8p6s-5" value="Git Server" style="rounded=0;whiteSpace=wrap;html=1;verticalAlign=top;" parent="1" vertex="1">
          <mxGeometry x="940" y="84.5" width="120" height="100" as="geometry" />
        </mxCell>
        <mxCell id="xqHPgo2YLqQgxxea8p6s-6" value="" style="endArrow=none;startArrow=classic;html=1;rounded=0;entryX=0;entryY=0.75;entryDx=0;entryDy=0;exitX=1;exitY=0.25;exitDx=0;exitDy=0;endFill=0;" parent="1" source="xqHPgo2YLqQgxxea8p6s-8" target="xqHPgo2YLqQgxxea8p6s-5" edge="1">
          <mxGeometry width="50" height="50" relative="1" as="geometry">
            <mxPoint x="530" y="620" as="sourcePoint" />
            <mxPoint x="580" y="570" as="targetPoint" />
          </mxGeometry>
        </mxCell>
        <mxCell id="xqHPgo2YLqQgxxea8p6s-7" value="2) repo files" style="edgeLabel;html=1;align=center;verticalAlign=middle;resizable=0;points=[];" parent="xqHPgo2YLqQgxxea8p6s-6" vertex="1" connectable="0">
          <mxGeometry x="-0.0807" relative="1" as="geometry">
            <mxPoint as="offset" />
          </mxGeometry>
        </mxCell>
        <mxCell id="xqHPgo2YLqQgxxea8p6s-8" value="&lt;div&gt;&lt;span style=&quot;background-color: transparent; color: light-dark(rgb(0, 0, 0), rgb(255, 255, 255));&quot;&gt;git working copy&lt;/span&gt;&lt;/div&gt;" style="rounded=0;whiteSpace=wrap;html=1;verticalAlign=top;" parent="1" vertex="1">
          <mxGeometry x="469.75" y="200" width="160" height="120" as="geometry" />
        </mxCell>
        <mxCell id="xqHPgo2YLqQgxxea8p6s-9" value="" style="endArrow=classic;html=1;rounded=0;entryX=0;entryY=0.25;entryDx=0;entryDy=0;exitX=1;exitY=0.25;exitDx=0;exitDy=0;" parent="1" source="xqHPgo2YLqQgxxea8p6s-1" target="xqHPgo2YLqQgxxea8p6s-5" edge="1">
          <mxGeometry width="50" height="50" relative="1" as="geometry">
            <mxPoint x="530" y="620" as="sourcePoint" />
            <mxPoint x="580" y="570" as="targetPoint" />
          </mxGeometry>
        </mxCell>
        <mxCell id="xqHPgo2YLqQgxxea8p6s-10" value="2) git clone" style="edgeLabel;html=1;align=center;verticalAlign=middle;resizable=0;points=[];" parent="xqHPgo2YLqQgxxea8p6s-9" vertex="1" connectable="0">
          <mxGeometry x="-0.146" y="-1" relative="1" as="geometry">
            <mxPoint as="offset" />
          </mxGeometry>
        </mxCell>
        <mxCell id="xqHPgo2YLqQgxxea8p6s-11" value="" style="endArrow=classic;html=1;rounded=0;entryX=0;entryY=0.5;entryDx=0;entryDy=0;exitX=1;exitY=0.75;exitDx=0;exitDy=0;" parent="1" source="m3ywG3zxG51LFpHeeQUq-1" target="xqHPgo2YLqQgxxea8p6s-13" edge="1">
          <mxGeometry width="50" height="50" relative="1" as="geometry">
            <mxPoint x="530" y="620" as="sourcePoint" />
            <mxPoint x="580" y="570" as="targetPoint" />
          </mxGeometry>
        </mxCell>
        <mxCell id="xqHPgo2YLqQgxxea8p6s-12" value="3) Initiate Docker&lt;div&gt;(execute script)&lt;/div&gt;" style="edgeLabel;html=1;align=center;verticalAlign=middle;resizable=0;points=[];" parent="xqHPgo2YLqQgxxea8p6s-11" vertex="1" connectable="0">
          <mxGeometry x="-0.0831" relative="1" as="geometry">
            <mxPoint as="offset" />
          </mxGeometry>
        </mxCell>
        <mxCell id="xqHPgo2YLqQgxxea8p6s-13" value="intiate_docker.sh" style="rounded=0;whiteSpace=wrap;html=1;verticalAlign=top;" parent="1" vertex="1">
          <mxGeometry x="484" y="239" width="131.5" height="30" as="geometry" />
        </mxCell>
        <mxCell id="xqHPgo2YLqQgxxea8p6s-14" value="docker_build_run.sh" style="rounded=0;whiteSpace=wrap;html=1;verticalAlign=top;" parent="1" vertex="1">
          <mxGeometry x="484" y="270" width="131.5" height="30" as="geometry" />
        </mxCell>
        <mxCell id="xqHPgo2YLqQgxxea8p6s-15" value="" style="endArrow=classic;html=1;rounded=0;exitX=1;exitY=0.5;exitDx=0;exitDy=0;curved=1;entryX=1;entryY=0.75;entryDx=0;entryDy=0;" parent="1" source="xqHPgo2YLqQgxxea8p6s-13" target="xqHPgo2YLqQgxxea8p6s-14" edge="1">
          <mxGeometry width="50" height="50" relative="1" as="geometry">
            <mxPoint x="530" y="620" as="sourcePoint" />
            <mxPoint x="656" y="290" as="targetPoint" />
            <Array as="points">
              <mxPoint x="1080" y="270" />
            </Array>
          </mxGeometry>
        </mxCell>
        <mxCell id="xqHPgo2YLqQgxxea8p6s-16" value="4) Run script as&amp;nbsp;&lt;div&gt;docker-user (sudo)&lt;/div&gt;" style="edgeLabel;html=1;align=center;verticalAlign=middle;resizable=0;points=[];" parent="xqHPgo2YLqQgxxea8p6s-15" vertex="1" connectable="0">
          <mxGeometry x="-0.5015" y="-8" relative="1" as="geometry">
            <mxPoint x="-97" as="offset" />
          </mxGeometry>
        </mxCell>
        <mxCell id="xqHPgo2YLqQgxxea8p6s-17" value="&lt;div&gt;&lt;span style=&quot;background-color: transparent; color: light-dark(rgb(0, 0, 0), rgb(255, 255, 255));&quot;&gt;Deployment Container&amp;nbsp;&lt;/span&gt;&lt;/div&gt;" style="rounded=0;whiteSpace=wrap;html=1;verticalAlign=top;" parent="1" vertex="1">
          <mxGeometry x="404.75" y="450" width="290" height="80" as="geometry" />
        </mxCell>
        <mxCell id="xqHPgo2YLqQgxxea8p6s-18" value="" style="endArrow=classic;html=1;rounded=0;exitX=0.25;exitY=1;exitDx=0;exitDy=0;entryX=0.25;entryY=0;entryDx=0;entryDy=0;" parent="1" source="xqHPgo2YLqQgxxea8p6s-14" target="xqHPgo2YLqQgxxea8p6s-17" edge="1">
          <mxGeometry width="50" height="50" relative="1" as="geometry">
            <mxPoint x="220.21" y="470" as="sourcePoint" />
            <mxPoint x="593.21" y="410" as="targetPoint" />
          </mxGeometry>
        </mxCell>
        <mxCell id="xqHPgo2YLqQgxxea8p6s-19" value="4)&amp;nbsp;build/run&lt;div&gt;container&lt;/div&gt;" style="edgeLabel;html=1;align=center;verticalAlign=middle;resizable=0;points=[];" parent="xqHPgo2YLqQgxxea8p6s-18" vertex="1" connectable="0">
          <mxGeometry x="0.0005" y="3" relative="1" as="geometry">
            <mxPoint y="-6" as="offset" />
          </mxGeometry>
        </mxCell>
        <mxCell id="xqHPgo2YLqQgxxea8p6s-20" value="" style="endArrow=classic;html=1;rounded=0;exitX=0.75;exitY=1;exitDx=0;exitDy=0;entryX=0.872;entryY=-0.033;entryDx=0;entryDy=0;entryPerimeter=0;" parent="1" source="xqHPgo2YLqQgxxea8p6s-14" target="xqHPgo2YLqQgxxea8p6s-22" edge="1">
          <mxGeometry width="50" height="50" relative="1" as="geometry">
            <mxPoint x="220.21" y="470" as="sourcePoint" />
            <mxPoint x="527.21" y="490" as="targetPoint" />
          </mxGeometry>
        </mxCell>
        <mxCell id="xqHPgo2YLqQgxxea8p6s-21" value="5) execute container&lt;div&gt;&lt;span style=&quot;background-color: light-dark(#ffffff, var(--ge-dark-color, #121212)); color: light-dark(rgb(0, 0, 0), rgb(255, 255, 255));&quot;&gt;script&lt;/span&gt;&lt;/div&gt;" style="edgeLabel;html=1;align=center;verticalAlign=middle;resizable=0;points=[];" parent="xqHPgo2YLqQgxxea8p6s-20" vertex="1" connectable="0">
          <mxGeometry x="-0.2105" y="1" relative="1" as="geometry">
            <mxPoint y="-5" as="offset" />
          </mxGeometry>
        </mxCell>
        <mxCell id="xqHPgo2YLqQgxxea8p6s-22" value="container_${SCRIPT_TYPE}.sh" style="rounded=0;whiteSpace=wrap;html=1;verticalAlign=top;" parent="1" vertex="1">
          <mxGeometry x="429.75" y="490" width="240" height="30" as="geometry" />
        </mxCell>
        <mxCell id="xqHPgo2YLqQgxxea8p6s-23" value="OCI ${ENV_NAME} DB" style="shape=cylinder3;whiteSpace=wrap;html=1;boundedLbl=1;backgroundOutline=1;size=15;" parent="1" vertex="1">
          <mxGeometry x="910" y="384.5" width="140" height="150" as="geometry" />
        </mxCell>
        <mxCell id="xqHPgo2YLqQgxxea8p6s-24" value="" style="endArrow=classic;html=1;rounded=0;entryX=0;entryY=0.5;entryDx=0;entryDy=0;entryPerimeter=0;exitX=1;exitY=0.5;exitDx=0;exitDy=0;" parent="1" source="xqHPgo2YLqQgxxea8p6s-22" target="xqHPgo2YLqQgxxea8p6s-23" edge="1">
          <mxGeometry width="50" height="50" relative="1" as="geometry">
            <mxPoint x="250" y="470" as="sourcePoint" />
            <mxPoint x="300" y="420" as="targetPoint" />
          </mxGeometry>
        </mxCell>
        <mxCell id="xqHPgo2YLqQgxxea8p6s-25" value="6) execute SQLPlus&lt;div&gt;&amp;nbsp;Scripts&lt;/div&gt;" style="edgeLabel;html=1;align=center;verticalAlign=middle;resizable=0;points=[];" parent="xqHPgo2YLqQgxxea8p6s-24" vertex="1" connectable="0">
          <mxGeometry x="-0.0219" relative="1" as="geometry">
            <mxPoint as="offset" />
          </mxGeometry>
        </mxCell>
        <UserObject label="Docker Oracle Deployment Diagram" link="LHP_docker_DB_deployment_diagram.drawio" id="xqHPgo2YLqQgxxea8p6s-26">
          <mxCell style="text;whiteSpace=wrap;align=center;fontSize=18;" parent="1" vertex="1">
            <mxGeometry y="17" width="1100" height="40" as="geometry" />
          </mxCell>
        </UserObject>
        <mxCell id="4cox58JU91g2Krtaamnl-1" value="User" style="shape=umlActor;verticalLabelPosition=bottom;verticalAlign=top;html=1;outlineConnect=0;" parent="1" vertex="1">
          <mxGeometry x="280" y="440" width="30" height="60" as="geometry" />
        </mxCell>
        <mxCell id="4cox58JU91g2Krtaamnl-2" value="" style="endArrow=classic;html=1;rounded=0;exitX=0;exitY=0.3333333333333333;exitDx=0;exitDy=0;exitPerimeter=0;entryX=0.75;entryY=1;entryDx=0;entryDy=0;" parent="1" source="4cox58JU91g2Krtaamnl-1" target="m3ywG3zxG51LFpHeeQUq-1" edge="1">
          <mxGeometry width="50" height="50" relative="1" as="geometry">
            <mxPoint x="530" y="620" as="sourcePoint" />
            <mxPoint x="580" y="570" as="targetPoint" />
          </mxGeometry>
        </mxCell>
        <mxCell id="4cox58JU91g2Krtaamnl-3" value="1) Specify ${ENV_NAME},&lt;div&gt;${DOCKER_USERNAME}&lt;/div&gt;" style="edgeLabel;html=1;align=center;verticalAlign=middle;resizable=0;points=[];" parent="4cox58JU91g2Krtaamnl-2" vertex="1" connectable="0">
          <mxGeometry x="-0.3912" y="1" relative="1" as="geometry">
            <mxPoint x="-30" y="-13" as="offset" />
          </mxGeometry>
        </mxCell>
      </root>
    </mxGraphModel>
  </diagram>
</mxfile>
